<svg width="1440" height="512" viewBox="0 0 1440 512" fill="none" xmlns="http://www.w3.org/2000/svg">
<rect width="1440" height="512" fill="#242424"/>
<path d="M895.76 198.34V202.6H882.56V198.34H895.76Z" fill="#1AFF23"/>
<path d="M929.76 198.34V202.6H916.56V198.34H929.76Z" fill="#1AFF23"/>
<path d="M968.76 198.34V202.6H955.56V198.34H968.76Z" fill="#1AFF23"/>
<path d="M1004.76 198.34V202.6H991.56V198.34H1004.76Z" fill="#1AFF23"/>
<path d="M449.76 198.34V202.6H436.56V198.34H449.76Z" fill="url(#paint0_linear_75_2)"/>
<path d="M483.76 198.34V202.6H470.56V198.34H483.76Z" fill="url(#paint1_linear_75_2)"/>
<path d="M522.76 198.34V202.6H509.56V198.34H522.76Z" fill="url(#paint2_linear_75_2)"/>
<path d="M558.76 198.34V202.6H545.56V198.34H558.76Z" fill="url(#paint3_linear_75_2)"/>
<ellipse cx="277.5" cy="199.5" rx="135.5" ry="131.5" fill="white"/>
<g clip-path="url(#clip0_75_2)">
<path d="M362.19 190.631C362.446 190.931 362.636 191.282 362.748 191.66C362.859 192.039 362.89 192.436 362.838 192.827C362.786 193.218 362.653 193.594 362.446 193.93C362.24 194.266 361.965 194.555 361.639 194.778L347.881 204.213L341.823 208.247C341.479 208.476 341.062 208.569 340.652 208.508C340.243 208.447 339.872 208.236 339.61 207.916C339.457 207.73 339.347 207.513 339.286 207.28C339.226 207.046 339.217 206.803 339.26 206.566C339.303 206.329 339.397 206.104 339.536 205.907C339.674 205.71 339.854 205.545 340.063 205.424L345.93 202.021L356.171 192.279L349.588 185.217L354.464 181.563L362.19 190.631Z" fill="#A0616A"/>
<path d="M329.838 279.468H326.472L324.474 251.704L333.008 251.461L329.838 279.468Z" fill="#A0616A"/>
<path d="M330.082 288.479C329.184 288.888 328.433 285.574 327.676 286.317C325.558 288.395 322.316 288.848 319.49 287.94L320.479 287.929C320.309 287.875 320.151 287.786 320.016 287.669C319.881 287.551 319.771 287.408 319.693 287.247C319.615 287.085 319.57 286.91 319.562 286.731C319.554 286.553 319.582 286.374 319.645 286.207C319.72 286.006 319.843 285.827 320.003 285.684C320.163 285.542 320.355 285.44 320.563 285.388L322.815 284.826L326.351 278.616L329.96 278.372C330.764 279.397 331.326 280.59 331.602 281.863C331.878 283.136 331.862 284.454 331.555 285.72C331.227 287.055 330.721 288.188 330.082 288.479Z" fill="#2F2E41"/>
<path d="M352.246 279.468H348.88L346.882 251.704L355.659 249.999L352.246 279.468Z" fill="#A0616A"/>
<path d="M352.49 288.479C351.592 288.888 350.841 285.574 350.084 286.317C347.966 288.395 344.724 288.848 341.898 287.94L342.887 287.929C342.717 287.875 342.559 287.786 342.424 287.669C342.289 287.551 342.179 287.408 342.101 287.247C342.023 287.085 341.978 286.91 341.97 286.731C341.962 286.553 341.99 286.374 342.053 286.207C342.128 286.006 342.251 285.827 342.411 285.684C342.571 285.542 342.763 285.44 342.971 285.388L345.223 284.826L348.758 278.616L352.612 278.129L352.709 278.288C353.454 279.487 353.934 280.831 354.118 282.23C354.301 283.629 354.184 285.051 353.773 286.402C353.453 287.427 353.017 288.239 352.49 288.479Z" fill="#2F2E41"/>
<path d="M356.062 182.191C352.967 182.622 350.824 184.315 349.952 187.692L344.263 177.2C343.925 176.534 343.84 175.768 344.022 175.043C344.204 174.319 344.641 173.684 345.254 173.255C345.904 172.8 346.704 172.611 347.489 172.726C348.274 172.84 348.986 173.251 349.478 173.873L356.062 182.191Z" fill="#FA144B"/>
<path d="M362.023 248.782C348.191 254.894 334.036 255.647 319.597 251.704C324.87 231.278 331.095 212.809 331.057 197.637L345.199 196.42L347.376 199.868C352.542 208.048 356.108 217.133 357.885 226.641L362.023 248.782Z" fill="#2F2E41"/>
<path d="M338.859 166.22C342.899 166.22 346.174 162.949 346.174 158.914C346.174 154.879 342.899 151.608 338.859 151.608C334.82 151.608 331.545 154.879 331.545 158.914C331.545 162.949 334.82 166.22 338.859 166.22Z" fill="#A0616A"/>
<path d="M346.906 171.822L337.884 172.309L336.421 164.272L343.736 163.054L346.906 171.822Z" fill="#A0616A"/>
<path d="M345.93 197.637L336.047 197.915L331.057 198.612C328.608 190.53 326.545 182.467 331.545 175.718L337.396 169.873L346.174 169.63L346.29 169.696C347.684 170.494 348.765 171.742 349.354 173.235C349.942 174.728 350.004 176.377 349.529 177.91C347.351 184.98 345.952 191.657 345.93 197.637Z" fill="#FA144B"/>
<path d="M330.813 220.287L330.2 228.656C330.167 229.104 329.973 229.526 329.654 229.842C329.335 230.159 328.912 230.35 328.463 230.38C328.204 230.397 327.945 230.36 327.701 230.272C327.457 230.183 327.235 230.045 327.047 229.866C326.86 229.687 326.712 229.471 326.613 229.231C326.515 228.992 326.467 228.735 326.473 228.476L326.668 220.287L332.764 197.15L333.008 183.025L339.835 182.781L339.347 199.099L330.813 220.287Z" fill="#A0616A"/>
<path d="M340.566 183.999C337.672 182.823 334.968 183.217 332.52 185.704L332.855 173.777C332.898 173.031 333.208 172.326 333.728 171.79C334.249 171.253 334.946 170.923 335.691 170.858C336.482 170.789 337.269 171.025 337.891 171.517C338.514 172.01 338.924 172.721 339.038 173.506L340.566 183.999Z" fill="#FA144B"/>
<path d="M354.342 191.427H331.91C337.143 177.586 338.831 164.71 331.91 153.678C332.029 150.364 336.284 147.492 339.588 147.809C343.491 148.184 348.735 151.048 349.466 154.895L354.342 191.427Z" fill="#2F2E41"/>
<path d="M282.852 147.201H281.829V119.204C281.829 117.076 281.41 114.969 280.594 113.003C279.779 111.037 278.584 109.251 277.078 107.746C275.571 106.241 273.783 105.048 271.815 104.233C269.846 103.419 267.737 103 265.606 103H206.223C204.092 103 201.983 103.419 200.015 104.233C198.046 105.048 196.258 106.241 194.751 107.746C193.245 109.251 192.05 111.037 191.235 113.003C190.42 114.969 190 117.076 190 119.204V272.796C190 274.924 190.42 277.031 191.235 278.997C192.05 280.963 193.245 282.749 194.751 284.254C196.258 285.759 198.046 286.952 200.015 287.767C201.983 288.581 204.092 289 206.223 289H265.606C267.737 289 269.846 288.581 271.815 287.767C273.783 286.952 275.571 285.759 277.078 284.254C278.584 282.749 279.779 280.963 280.594 278.997C281.41 277.031 281.829 274.924 281.829 272.796V167.129H282.852V147.201Z" fill="#3F3D56"/>
<path d="M266.261 107.216H258.51C258.866 108.089 259.002 109.036 258.906 109.974C258.809 110.911 258.484 111.811 257.957 112.594C257.431 113.376 256.72 114.017 255.887 114.461C255.054 114.904 254.124 115.136 253.18 115.136H219.16C218.216 115.136 217.287 114.904 216.454 114.461C215.621 114.017 214.91 113.376 214.383 112.594C213.857 111.811 213.531 110.911 213.435 109.974C213.339 109.036 213.475 108.089 213.831 107.216H206.591C205 107.216 203.425 107.529 201.955 108.137C200.485 108.745 199.15 109.636 198.025 110.76C196.9 111.884 196.007 113.218 195.399 114.686C194.79 116.154 194.476 117.727 194.476 119.316V272.684C194.476 274.273 194.79 275.846 195.399 277.314C196.007 278.782 196.9 280.116 198.025 281.24C199.15 282.364 200.485 283.255 201.955 283.863C203.425 284.471 205 284.784 206.591 284.784H266.261C267.852 284.784 269.427 284.471 270.897 283.863C272.367 283.255 273.703 282.364 274.828 281.24C275.953 280.116 276.845 278.782 277.454 277.314C278.063 275.846 278.376 274.273 278.376 272.684V119.316C278.376 116.107 277.1 113.029 274.828 110.76C272.556 108.491 269.474 107.216 266.261 107.216Z" fill="white"/>
<path d="M267.898 131.173H204.954V185.098H267.898V131.173Z" fill="#E6E6E6"/>
<path d="M223.633 196.344C226.176 196.344 228.238 194.284 228.238 191.743C228.238 189.203 226.176 187.143 223.633 187.143C221.089 187.143 219.027 189.203 219.027 191.743C219.027 194.284 221.089 196.344 223.633 196.344Z" fill="#FA144B"/>
<path d="M225.936 191.36H224.017V189.443H223.249V191.36H221.33V192.127H223.249V194.044H224.017V192.127H225.936V191.36Z" fill="white"/>
<path d="M247.94 196.344C250.484 196.344 252.546 194.284 252.546 191.743C252.546 189.203 250.484 187.143 247.94 187.143C245.397 187.143 243.335 189.203 243.335 191.743C243.335 194.284 245.397 196.344 247.94 196.344Z" fill="#FA144B"/>
<path d="M250.243 192.127V191.36H245.638V192.127H250.243Z" fill="white"/>
<path d="M238.774 137.898H233.8C233.625 137.898 233.457 137.967 233.333 138.091C233.21 138.215 233.14 138.382 233.14 138.557V140.738C233.14 140.912 233.21 141.08 233.333 141.203C233.457 141.327 233.625 141.396 233.8 141.396H234.624V144.664H237.949V141.396H238.774C238.949 141.396 239.116 141.327 239.24 141.203C239.364 141.08 239.433 140.912 239.433 140.738V138.557C239.433 138.382 239.364 138.215 239.24 138.091C239.116 137.967 238.949 137.898 238.774 137.898Z" fill="#FA144B"/>
<path d="M243.756 157.856C240.71 153.404 239.152 148.103 239.307 142.712C239.31 142.588 239.269 142.466 239.193 142.368C239.116 142.27 239.008 142.202 238.886 142.175V141.232H233.633V142.162H233.56C233.489 142.162 233.419 142.176 233.354 142.203C233.289 142.23 233.229 142.27 233.179 142.32C233.129 142.37 233.09 142.429 233.063 142.495C233.036 142.56 233.022 142.63 233.022 142.701C233.022 142.714 233.022 142.727 233.023 142.74C233.437 148.502 232.04 153.67 228.831 158.243C228.646 158.506 228.552 158.821 228.562 159.142L229.136 176.89C229.15 177.286 229.316 177.661 229.601 177.938C229.885 178.214 230.265 178.37 230.661 178.373H242.544C242.945 178.37 243.329 178.21 243.614 177.928C243.899 177.647 244.062 177.265 244.07 176.864L244.291 159.632C244.298 159 244.111 158.38 243.756 157.856Z" fill="#3F3D56"/>
<path opacity="0.2" d="M237.737 138.609C237.737 138.986 237.587 139.347 237.32 139.614C237.053 139.88 236.691 140.03 236.314 140.03C235.937 140.03 235.575 139.88 235.308 139.614C235.041 139.347 234.891 138.986 234.891 138.609" fill="black"/>
<path d="M241.875 163.752H240.436C240.299 162.861 239.847 162.05 239.162 161.463C238.478 160.877 237.605 160.554 236.704 160.554C235.802 160.554 234.93 160.877 234.245 161.463C233.56 162.05 233.109 162.861 232.971 163.752H231.532C231.379 163.752 231.228 163.785 231.089 163.849C230.95 163.913 230.826 164.006 230.726 164.122C230.627 164.238 230.553 164.374 230.511 164.521C230.469 164.668 230.459 164.823 230.483 164.974L232.046 175.121H241.02L242.919 165.008C242.947 164.855 242.942 164.697 242.903 164.546C242.864 164.395 242.792 164.255 242.692 164.135C242.592 164.015 242.467 163.919 242.326 163.852C242.185 163.786 242.031 163.752 241.875 163.752Z" fill="#FA144B"/>
<path d="M267.898 207.078H204.954V261.003H267.898V207.078Z" fill="#E6E6E6"/>
<path d="M223.633 272.249C226.176 272.249 228.238 270.189 228.238 267.648C228.238 265.108 226.176 263.048 223.633 263.048C221.089 263.048 219.027 265.108 219.027 267.648C219.027 270.189 221.089 272.249 223.633 272.249Z" fill="#FA144B"/>
<path d="M225.936 267.265H224.017V265.348H223.249V267.265H221.33V268.032H223.249V269.949H224.017V268.032H225.936V267.265Z" fill="white"/>
<path d="M247.94 272.249C250.484 272.249 252.546 270.189 252.546 267.648C252.546 265.108 250.484 263.048 247.94 263.048C245.397 263.048 243.335 265.108 243.335 267.648C243.335 270.189 245.397 272.249 247.94 272.249Z" fill="#FA144B"/>
<path d="M250.243 268.032V267.265H245.638V268.032H250.243Z" fill="white"/>
<path d="M248.817 245.387L248.852 245.387C250.037 245.397 251.198 245.05 252.182 244.392C253.167 243.733 253.93 242.793 254.372 241.694C255.764 238.178 256.09 234.33 255.309 230.63C254.528 226.93 252.675 223.541 249.98 220.885C247.285 218.229 243.868 216.424 240.153 215.694C236.438 214.964 232.591 215.342 229.089 216.78C225.588 218.218 222.587 220.653 220.461 223.782C218.335 226.91 217.177 230.595 217.132 234.376C217.087 238.157 218.157 241.868 220.207 245.047C222.258 248.225 225.2 250.731 228.666 252.252C229.743 252.729 230.939 252.869 232.098 252.654C233.256 252.44 234.323 251.88 235.157 251.05C236.947 249.252 239.076 247.827 241.421 246.855C243.765 245.883 246.279 245.384 248.817 245.387Z" fill="white"/>
<path d="M238.904 239.553C242.424 239.553 245.277 236.703 245.277 233.187C245.277 229.672 242.424 226.822 238.904 226.822C235.385 226.822 232.532 229.672 232.532 233.187C232.532 236.703 235.385 239.553 238.904 239.553Z" fill="#F9A825"/>
</g>
<path d="M214.6 401.175C213.433 401.175 212.383 400.975 211.45 400.575C210.517 400.158 209.783 399.575 209.25 398.825C208.717 398.075 208.45 397.2 208.45 396.2H211.5C211.567 396.95 211.858 397.567 212.375 398.05C212.908 398.533 213.65 398.775 214.6 398.775C215.583 398.775 216.35 398.542 216.9 398.075C217.45 397.592 217.725 396.975 217.725 396.225C217.725 395.642 217.55 395.167 217.2 394.8C216.867 394.433 216.442 394.15 215.925 393.95C215.425 393.75 214.725 393.533 213.825 393.3C212.692 393 211.767 392.7 211.05 392.4C210.35 392.083 209.75 391.6 209.25 390.95C208.75 390.3 208.5 389.433 208.5 388.35C208.5 387.35 208.75 386.475 209.25 385.725C209.75 384.975 210.45 384.4 211.35 384C212.25 383.6 213.292 383.4 214.475 383.4C216.158 383.4 217.533 383.825 218.6 384.675C219.683 385.508 220.283 386.658 220.4 388.125H217.25C217.2 387.492 216.9 386.95 216.35 386.5C215.8 386.05 215.075 385.825 214.175 385.825C213.358 385.825 212.692 386.033 212.175 386.45C211.658 386.867 211.4 387.467 211.4 388.25C211.4 388.783 211.558 389.225 211.875 389.575C212.208 389.908 212.625 390.175 213.125 390.375C213.625 390.575 214.308 390.792 215.175 391.025C216.325 391.342 217.258 391.658 217.975 391.975C218.708 392.292 219.325 392.783 219.825 393.45C220.342 394.1 220.6 394.975 220.6 396.075C220.6 396.958 220.358 397.792 219.875 398.575C219.408 399.358 218.717 399.992 217.8 400.475C216.9 400.942 215.833 401.175 214.6 401.175ZM236.588 393.775C236.588 394.292 236.555 394.758 236.488 395.175H225.963C226.046 396.275 226.455 397.158 227.188 397.825C227.921 398.492 228.821 398.825 229.888 398.825C231.421 398.825 232.505 398.183 233.138 396.9H236.213C235.796 398.167 235.038 399.208 233.938 400.025C232.855 400.825 231.505 401.225 229.888 401.225C228.571 401.225 227.388 400.933 226.338 400.35C225.305 399.75 224.488 398.917 223.888 397.85C223.305 396.767 223.013 395.517 223.013 394.1C223.013 392.683 223.296 391.442 223.863 390.375C224.446 389.292 225.255 388.458 226.288 387.875C227.338 387.292 228.538 387 229.888 387C231.188 387 232.346 387.283 233.363 387.85C234.38 388.417 235.171 389.217 235.738 390.25C236.305 391.267 236.588 392.442 236.588 393.775ZM233.613 392.875C233.596 391.825 233.221 390.983 232.488 390.35C231.755 389.717 230.846 389.4 229.763 389.4C228.78 389.4 227.938 389.717 227.238 390.35C226.538 390.967 226.121 391.808 225.988 392.875H233.613ZM242.243 382.5V401H239.393V382.5H242.243ZM258.609 393.775C258.609 394.292 258.576 394.758 258.509 395.175H247.984C248.068 396.275 248.476 397.158 249.209 397.825C249.943 398.492 250.843 398.825 251.909 398.825C253.443 398.825 254.526 398.183 255.159 396.9H258.234C257.818 398.167 257.059 399.208 255.959 400.025C254.876 400.825 253.526 401.225 251.909 401.225C250.593 401.225 249.409 400.933 248.359 400.35C247.326 399.75 246.509 398.917 245.909 397.85C245.326 396.767 245.034 395.517 245.034 394.1C245.034 392.683 245.318 391.442 245.884 390.375C246.468 389.292 247.276 388.458 248.309 387.875C249.359 387.292 250.559 387 251.909 387C253.209 387 254.368 387.283 255.384 387.85C256.401 388.417 257.193 389.217 257.759 390.25C258.326 391.267 258.609 392.442 258.609 393.775ZM255.634 392.875C255.618 391.825 255.243 390.983 254.509 390.35C253.776 389.717 252.868 389.4 251.784 389.4C250.801 389.4 249.959 389.717 249.259 390.35C248.559 390.967 248.143 391.808 248.009 392.875H255.634ZM260.464 394.1C260.464 392.683 260.747 391.442 261.314 390.375C261.897 389.292 262.697 388.458 263.714 387.875C264.731 387.292 265.897 387 267.214 387C268.881 387 270.256 387.4 271.339 388.2C272.439 388.983 273.181 390.108 273.564 391.575H270.489C270.239 390.892 269.839 390.358 269.289 389.975C268.739 389.592 268.047 389.4 267.214 389.4C266.047 389.4 265.114 389.817 264.414 390.65C263.731 391.467 263.389 392.617 263.389 394.1C263.389 395.583 263.731 396.742 264.414 397.575C265.114 398.408 266.047 398.825 267.214 398.825C268.864 398.825 269.956 398.1 270.489 396.65H273.564C273.164 398.05 272.414 399.167 271.314 400C270.214 400.817 268.847 401.225 267.214 401.225C265.897 401.225 264.731 400.933 263.714 400.35C262.697 399.75 261.897 398.917 261.314 397.85C260.747 396.767 260.464 395.517 260.464 394.1ZM279.729 389.55V397.175C279.729 397.692 279.846 398.067 280.079 398.3C280.329 398.517 280.746 398.625 281.329 398.625H283.079V401H280.829C279.546 401 278.563 400.7 277.879 400.1C277.196 399.5 276.854 398.525 276.854 397.175V389.55H275.229V387.225H276.854V383.8H279.729V387.225H283.079V389.55H279.729ZM297.975 389.55H295.425V401H292.55V389.55H290.925V387.225H292.55V386.25C292.55 384.667 292.967 383.517 293.8 382.8C294.65 382.067 295.975 381.7 297.775 381.7V384.075C296.909 384.075 296.3 384.242 295.95 384.575C295.6 384.892 295.425 385.45 295.425 386.25V387.225H297.975V389.55ZM306.476 401.225C305.176 401.225 304.001 400.933 302.951 400.35C301.901 399.75 301.076 398.917 300.476 397.85C299.876 396.767 299.576 395.517 299.576 394.1C299.576 392.7 299.884 391.458 300.501 390.375C301.118 389.292 301.959 388.458 303.026 387.875C304.093 387.292 305.284 387 306.601 387C307.918 387 309.109 387.292 310.176 387.875C311.243 388.458 312.084 389.292 312.701 390.375C313.318 391.458 313.626 392.7 313.626 394.1C313.626 395.5 313.309 396.742 312.676 397.825C312.043 398.908 311.176 399.75 310.076 400.35C308.993 400.933 307.793 401.225 306.476 401.225ZM306.476 398.75C307.209 398.75 307.893 398.575 308.526 398.225C309.176 397.875 309.701 397.35 310.101 396.65C310.501 395.95 310.701 395.1 310.701 394.1C310.701 393.1 310.509 392.258 310.126 391.575C309.743 390.875 309.234 390.35 308.601 390C307.968 389.65 307.284 389.475 306.551 389.475C305.818 389.475 305.134 389.65 304.501 390C303.884 390.35 303.393 390.875 303.026 391.575C302.659 392.258 302.476 393.1 302.476 394.1C302.476 395.583 302.851 396.733 303.601 397.55C304.368 398.35 305.326 398.75 306.476 398.75ZM322.418 401.225C321.118 401.225 319.943 400.933 318.893 400.35C317.843 399.75 317.018 398.917 316.418 397.85C315.818 396.767 315.518 395.517 315.518 394.1C315.518 392.7 315.827 391.458 316.443 390.375C317.06 389.292 317.902 388.458 318.968 387.875C320.035 387.292 321.227 387 322.543 387C323.86 387 325.052 387.292 326.118 387.875C327.185 388.458 328.027 389.292 328.643 390.375C329.26 391.458 329.568 392.7 329.568 394.1C329.568 395.5 329.252 396.742 328.618 397.825C327.985 398.908 327.118 399.75 326.018 400.35C324.935 400.933 323.735 401.225 322.418 401.225ZM322.418 398.75C323.152 398.75 323.835 398.575 324.468 398.225C325.118 397.875 325.643 397.35 326.043 396.65C326.443 395.95 326.643 395.1 326.643 394.1C326.643 393.1 326.452 392.258 326.068 391.575C325.685 390.875 325.177 390.35 324.543 390C323.91 389.65 323.227 389.475 322.493 389.475C321.76 389.475 321.077 389.65 320.443 390C319.827 390.35 319.335 390.875 318.968 391.575C318.602 392.258 318.418 393.1 318.418 394.1C318.418 395.583 318.793 396.733 319.543 397.55C320.31 398.35 321.268 398.75 322.418 398.75ZM331.436 394.05C331.436 392.667 331.719 391.442 332.286 390.375C332.869 389.308 333.652 388.483 334.636 387.9C335.636 387.3 336.744 387 337.961 387C338.861 387 339.744 387.2 340.611 387.6C341.494 387.983 342.194 388.5 342.711 389.15V382.5H345.586V401H342.711V398.925C342.244 399.592 341.594 400.142 340.761 400.575C339.944 401.008 339.002 401.225 337.936 401.225C336.736 401.225 335.636 400.925 334.636 400.325C333.652 399.708 332.869 398.858 332.286 397.775C331.719 396.675 331.436 395.433 331.436 394.05ZM342.711 394.1C342.711 393.15 342.511 392.325 342.111 391.625C341.727 390.925 341.219 390.392 340.586 390.025C339.952 389.658 339.269 389.475 338.536 389.475C337.802 389.475 337.119 389.658 336.486 390.025C335.852 390.375 335.336 390.9 334.936 391.6C334.552 392.283 334.361 393.1 334.361 394.05C334.361 395 334.552 395.833 334.936 396.55C335.336 397.267 335.852 397.817 336.486 398.2C337.136 398.567 337.819 398.75 338.536 398.75C339.269 398.75 339.952 398.567 340.586 398.2C341.219 397.833 341.727 397.3 342.111 396.6C342.511 395.883 342.711 395.05 342.711 394.1Z" fill="white"/>
<path d="M633.419 392.275C633.419 390.575 633.811 389.05 634.594 387.7C635.394 386.35 636.469 385.3 637.819 384.55C639.186 383.783 640.677 383.4 642.294 383.4C644.144 383.4 645.786 383.858 647.219 384.775C648.669 385.675 649.719 386.958 650.369 388.625H646.944C646.494 387.708 645.869 387.025 645.069 386.575C644.269 386.125 643.344 385.9 642.294 385.9C641.144 385.9 640.119 386.158 639.219 386.675C638.319 387.192 637.611 387.933 637.094 388.9C636.594 389.867 636.344 390.992 636.344 392.275C636.344 393.558 636.594 394.683 637.094 395.65C637.611 396.617 638.319 397.367 639.219 397.9C640.119 398.417 641.144 398.675 642.294 398.675C643.344 398.675 644.269 398.45 645.069 398C645.869 397.55 646.494 396.867 646.944 395.95H650.369C649.719 397.617 648.669 398.9 647.219 399.8C645.786 400.7 644.144 401.15 642.294 401.15C640.661 401.15 639.169 400.775 637.819 400.025C636.469 399.258 635.394 398.2 634.594 396.85C633.811 395.5 633.419 393.975 633.419 392.275ZM659.68 401.225C658.38 401.225 657.205 400.933 656.155 400.35C655.105 399.75 654.28 398.917 653.68 397.85C653.08 396.767 652.78 395.517 652.78 394.1C652.78 392.7 653.088 391.458 653.705 390.375C654.322 389.292 655.163 388.458 656.23 387.875C657.297 387.292 658.488 387 659.805 387C661.122 387 662.313 387.292 663.38 387.875C664.447 388.458 665.288 389.292 665.905 390.375C666.522 391.458 666.83 392.7 666.83 394.1C666.83 395.5 666.513 396.742 665.88 397.825C665.247 398.908 664.38 399.75 663.28 400.35C662.197 400.933 660.997 401.225 659.68 401.225ZM659.68 398.75C660.413 398.75 661.097 398.575 661.73 398.225C662.38 397.875 662.905 397.35 663.305 396.65C663.705 395.95 663.905 395.1 663.905 394.1C663.905 393.1 663.713 392.258 663.33 391.575C662.947 390.875 662.438 390.35 661.805 390C661.172 389.65 660.488 389.475 659.755 389.475C659.022 389.475 658.338 389.65 657.705 390C657.088 390.35 656.597 390.875 656.23 391.575C655.863 392.258 655.68 393.1 655.68 394.1C655.68 395.583 656.055 396.733 656.805 397.55C657.572 398.35 658.53 398.75 659.68 398.75ZM676.597 387C677.681 387 678.647 387.225 679.497 387.675C680.364 388.125 681.039 388.792 681.522 389.675C682.006 390.558 682.247 391.625 682.247 392.875V401H679.422V393.3C679.422 392.067 679.114 391.125 678.497 390.475C677.881 389.808 677.039 389.475 675.972 389.475C674.906 389.475 674.056 389.808 673.422 390.475C672.806 391.125 672.497 392.067 672.497 393.3V401H669.647V387.225H672.497V388.8C672.964 388.233 673.556 387.792 674.272 387.475C675.006 387.158 675.781 387 676.597 387ZM691.658 389.55H689.108V401H686.233V389.55H684.608V387.225H686.233V386.25C686.233 384.667 686.649 383.517 687.483 382.8C688.333 382.067 689.658 381.7 691.458 381.7V384.075C690.591 384.075 689.983 384.242 689.633 384.575C689.283 384.892 689.108 385.45 689.108 386.25V387.225H691.658V389.55ZM695.634 385.4C695.117 385.4 694.684 385.225 694.334 384.875C693.984 384.525 693.809 384.092 693.809 383.575C693.809 383.058 693.984 382.625 694.334 382.275C694.684 381.925 695.117 381.75 695.634 381.75C696.134 381.75 696.559 381.925 696.909 382.275C697.259 382.625 697.434 383.058 697.434 383.575C697.434 384.092 697.259 384.525 696.909 384.875C696.559 385.225 696.134 385.4 695.634 385.4ZM697.034 387.225V401H694.184V387.225H697.034ZM703.625 389.225C704.042 388.525 704.592 387.983 705.275 387.6C705.975 387.2 706.8 387 707.75 387V389.95H707.025C705.909 389.95 705.059 390.233 704.475 390.8C703.909 391.367 703.625 392.35 703.625 393.75V401H700.775V387.225H703.625V389.225ZM727.045 387C728.128 387 729.095 387.225 729.945 387.675C730.812 388.125 731.487 388.792 731.97 389.675C732.47 390.558 732.72 391.625 732.72 392.875V401H729.895V393.3C729.895 392.067 729.587 391.125 728.97 390.475C728.353 389.808 727.512 389.475 726.445 389.475C725.378 389.475 724.528 389.808 723.895 390.475C723.278 391.125 722.97 392.067 722.97 393.3V401H720.145V393.3C720.145 392.067 719.837 391.125 719.22 390.475C718.603 389.808 717.762 389.475 716.695 389.475C715.628 389.475 714.778 389.808 714.145 390.475C713.528 391.125 713.22 392.067 713.22 393.3V401H710.37V387.225H713.22V388.8C713.687 388.233 714.278 387.792 714.995 387.475C715.712 387.158 716.478 387 717.295 387C718.395 387 719.378 387.233 720.245 387.7C721.112 388.167 721.778 388.842 722.245 389.725C722.662 388.892 723.312 388.233 724.195 387.75C725.078 387.25 726.028 387 727.045 387ZM750.766 401.175C749.149 401.175 747.657 400.8 746.291 400.05C744.941 399.283 743.866 398.225 743.066 396.875C742.282 395.508 741.891 393.975 741.891 392.275C741.891 390.575 742.282 389.05 743.066 387.7C743.866 386.35 744.941 385.3 746.291 384.55C747.657 383.783 749.149 383.4 750.766 383.4C752.399 383.4 753.891 383.783 755.241 384.55C756.607 385.3 757.682 386.35 758.466 387.7C759.249 389.05 759.641 390.575 759.641 392.275C759.641 393.975 759.249 395.508 758.466 396.875C757.682 398.225 756.607 399.283 755.241 400.05C753.891 400.8 752.399 401.175 750.766 401.175ZM750.766 398.7C751.916 398.7 752.941 398.442 753.841 397.925C754.741 397.392 755.441 396.642 755.941 395.675C756.457 394.692 756.716 393.558 756.716 392.275C756.716 390.992 756.457 389.867 755.941 388.9C755.441 387.933 754.741 387.192 753.841 386.675C752.941 386.158 751.916 385.9 750.766 385.9C749.616 385.9 748.591 386.158 747.691 386.675C746.791 387.192 746.082 387.933 745.566 388.9C745.066 389.867 744.816 390.992 744.816 392.275C744.816 393.558 745.066 394.692 745.566 395.675C746.082 396.642 746.791 397.392 747.691 397.925C748.591 398.442 749.616 398.7 750.766 398.7ZM765.295 389.225C765.712 388.525 766.262 387.983 766.945 387.6C767.645 387.2 768.47 387 769.42 387V389.95H768.695C767.579 389.95 766.729 390.233 766.145 390.8C765.579 391.367 765.295 392.35 765.295 393.75V401H762.445V387.225H765.295V389.225ZM771.09 394.05C771.09 392.667 771.373 391.442 771.94 390.375C772.523 389.308 773.307 388.483 774.29 387.9C775.29 387.3 776.398 387 777.615 387C778.515 387 779.398 387.2 780.265 387.6C781.148 387.983 781.848 388.5 782.365 389.15V382.5H785.24V401H782.365V398.925C781.898 399.592 781.248 400.142 780.415 400.575C779.598 401.008 778.657 401.225 777.59 401.225C776.39 401.225 775.29 400.925 774.29 400.325C773.307 399.708 772.523 398.858 771.94 397.775C771.373 396.675 771.09 395.433 771.09 394.05ZM782.365 394.1C782.365 393.15 782.165 392.325 781.765 391.625C781.382 390.925 780.873 390.392 780.24 390.025C779.607 389.658 778.923 389.475 778.19 389.475C777.457 389.475 776.773 389.658 776.14 390.025C775.507 390.375 774.99 390.9 774.59 391.6C774.207 392.283 774.015 393.1 774.015 394.05C774.015 395 774.207 395.833 774.59 396.55C774.99 397.267 775.507 397.817 776.14 398.2C776.79 398.567 777.473 398.75 778.19 398.75C778.923 398.75 779.607 398.567 780.24 398.2C780.873 397.833 781.382 397.3 781.765 396.6C782.165 395.883 782.365 395.05 782.365 394.1ZM801.608 393.775C801.608 394.292 801.575 394.758 801.508 395.175H790.983C791.067 396.275 791.475 397.158 792.208 397.825C792.942 398.492 793.842 398.825 794.908 398.825C796.442 398.825 797.525 398.183 798.158 396.9H801.233C800.817 398.167 800.058 399.208 798.958 400.025C797.875 400.825 796.525 401.225 794.908 401.225C793.592 401.225 792.408 400.933 791.358 400.35C790.325 399.75 789.508 398.917 788.908 397.85C788.325 396.767 788.033 395.517 788.033 394.1C788.033 392.683 788.317 391.442 788.883 390.375C789.467 389.292 790.275 388.458 791.308 387.875C792.358 387.292 793.558 387 794.908 387C796.208 387 797.367 387.283 798.383 387.85C799.4 388.417 800.192 389.217 800.758 390.25C801.325 391.267 801.608 392.442 801.608 393.775ZM798.633 392.875C798.617 391.825 798.242 390.983 797.508 390.35C796.775 389.717 795.867 389.4 794.783 389.4C793.8 389.4 792.958 389.717 792.258 390.35C791.558 390.967 791.142 391.808 791.008 392.875H798.633ZM807.263 389.225C807.68 388.525 808.23 387.983 808.913 387.6C809.613 387.2 810.438 387 811.388 387V389.95H810.663C809.546 389.95 808.696 390.233 808.113 390.8C807.546 391.367 807.263 392.35 807.263 393.75V401H804.413V387.225H807.263V389.225Z" fill="white"/>
<path d="M1090.45 388.625C1090 387.758 1089.38 387.108 1088.58 386.675C1087.78 386.225 1086.85 386 1085.8 386C1084.65 386 1083.63 386.258 1082.73 386.775C1081.83 387.292 1081.12 388.025 1080.6 388.975C1080.1 389.925 1079.85 391.025 1079.85 392.275C1079.85 393.525 1080.1 394.633 1080.6 395.6C1081.12 396.55 1081.83 397.283 1082.73 397.8C1083.63 398.317 1084.65 398.575 1085.8 398.575C1087.35 398.575 1088.61 398.142 1089.58 397.275C1090.54 396.408 1091.13 395.233 1091.35 393.75H1084.83V391.475H1094.4V393.7C1094.22 395.05 1093.73 396.292 1092.95 397.425C1092.18 398.558 1091.18 399.467 1089.93 400.15C1088.69 400.817 1087.32 401.15 1085.8 401.15C1084.17 401.15 1082.68 400.775 1081.33 400.025C1079.98 399.258 1078.9 398.2 1078.1 396.85C1077.32 395.5 1076.93 393.975 1076.93 392.275C1076.93 390.575 1077.32 389.05 1078.1 387.7C1078.9 386.35 1079.98 385.3 1081.33 384.55C1082.69 383.783 1084.18 383.4 1085.8 383.4C1087.65 383.4 1089.29 383.858 1090.73 384.775C1092.18 385.675 1093.23 386.958 1093.88 388.625H1090.45ZM1109.84 393.775C1109.84 394.292 1109.8 394.758 1109.74 395.175H1099.21C1099.29 396.275 1099.7 397.158 1100.44 397.825C1101.17 398.492 1102.07 398.825 1103.14 398.825C1104.67 398.825 1105.75 398.183 1106.39 396.9H1109.46C1109.04 398.167 1108.29 399.208 1107.19 400.025C1106.1 400.825 1104.75 401.225 1103.14 401.225C1101.82 401.225 1100.64 400.933 1099.59 400.35C1098.55 399.75 1097.74 398.917 1097.14 397.85C1096.55 396.767 1096.26 395.517 1096.26 394.1C1096.26 392.683 1096.54 391.442 1097.11 390.375C1097.69 389.292 1098.5 388.458 1099.54 387.875C1100.59 387.292 1101.79 387 1103.14 387C1104.44 387 1105.59 387.283 1106.61 387.85C1107.63 388.417 1108.42 389.217 1108.99 390.25C1109.55 391.267 1109.84 392.442 1109.84 393.775ZM1106.86 392.875C1106.84 391.825 1106.47 390.983 1105.74 390.35C1105 389.717 1104.09 389.4 1103.01 389.4C1102.03 389.4 1101.19 389.717 1100.49 390.35C1099.79 390.967 1099.37 391.808 1099.24 392.875H1106.86ZM1115.97 389.55V397.175C1115.97 397.692 1116.08 398.067 1116.32 398.3C1116.57 398.517 1116.98 398.625 1117.57 398.625H1119.32V401H1117.07C1115.78 401 1114.8 400.7 1114.12 400.1C1113.43 399.5 1113.09 398.525 1113.09 397.175V389.55H1111.47V387.225H1113.09V383.8H1115.97V387.225H1119.32V389.55H1115.97ZM1134.11 383.625C1135.96 383.625 1137.58 383.983 1138.96 384.7C1140.36 385.4 1141.44 386.417 1142.19 387.75C1142.95 389.067 1143.34 390.608 1143.34 392.375C1143.34 394.142 1142.95 395.675 1142.19 396.975C1141.44 398.275 1140.36 399.275 1138.96 399.975C1137.58 400.658 1135.96 401 1134.11 401H1128.44V383.625H1134.11ZM1134.11 398.675C1136.14 398.675 1137.7 398.125 1138.79 397.025C1139.87 395.925 1140.41 394.375 1140.41 392.375C1140.41 390.358 1139.87 388.783 1138.79 387.65C1137.7 386.517 1136.14 385.95 1134.11 385.95H1131.29V398.675H1134.11ZM1158.79 393.775C1158.79 394.292 1158.75 394.758 1158.69 395.175H1148.16C1148.24 396.275 1148.65 397.158 1149.39 397.825C1150.12 398.492 1151.02 398.825 1152.09 398.825C1153.62 398.825 1154.7 398.183 1155.34 396.9H1158.41C1157.99 398.167 1157.24 399.208 1156.14 400.025C1155.05 400.825 1153.7 401.225 1152.09 401.225C1150.77 401.225 1149.59 400.933 1148.54 400.35C1147.5 399.75 1146.69 398.917 1146.09 397.85C1145.5 396.767 1145.21 395.517 1145.21 394.1C1145.21 392.683 1145.49 391.442 1146.06 390.375C1146.64 389.292 1147.45 388.458 1148.49 387.875C1149.54 387.292 1150.74 387 1152.09 387C1153.39 387 1154.54 387.283 1155.56 387.85C1156.58 388.417 1157.37 389.217 1157.94 390.25C1158.5 391.267 1158.79 392.442 1158.79 393.775ZM1155.81 392.875C1155.79 391.825 1155.42 390.983 1154.69 390.35C1153.95 389.717 1153.04 389.4 1151.96 389.4C1150.98 389.4 1150.14 389.717 1149.44 390.35C1148.74 390.967 1148.32 391.808 1148.19 392.875H1155.81ZM1164.44 382.5V401H1161.59V382.5H1164.44ZM1169.63 385.4C1169.12 385.4 1168.68 385.225 1168.33 384.875C1167.98 384.525 1167.81 384.092 1167.81 383.575C1167.81 383.058 1167.98 382.625 1168.33 382.275C1168.68 381.925 1169.12 381.75 1169.63 381.75C1170.13 381.75 1170.56 381.925 1170.91 382.275C1171.26 382.625 1171.43 383.058 1171.43 383.575C1171.43 384.092 1171.26 384.525 1170.91 384.875C1170.56 385.225 1170.13 385.4 1169.63 385.4ZM1171.03 387.225V401H1168.18V387.225H1171.03ZM1180.1 398.45L1184 387.225H1187.02L1181.77 401H1178.37L1173.15 387.225H1176.2L1180.1 398.45ZM1201.8 393.775C1201.8 394.292 1201.77 394.758 1201.7 395.175H1191.18C1191.26 396.275 1191.67 397.158 1192.4 397.825C1193.14 398.492 1194.04 398.825 1195.1 398.825C1196.64 398.825 1197.72 398.183 1198.35 396.9H1201.43C1201.01 398.167 1200.25 399.208 1199.15 400.025C1198.07 400.825 1196.72 401.225 1195.1 401.225C1193.79 401.225 1192.6 400.933 1191.55 400.35C1190.52 399.75 1189.7 398.917 1189.1 397.85C1188.52 396.767 1188.23 395.517 1188.23 394.1C1188.23 392.683 1188.51 391.442 1189.08 390.375C1189.66 389.292 1190.47 388.458 1191.5 387.875C1192.55 387.292 1193.75 387 1195.1 387C1196.4 387 1197.56 387.283 1198.58 387.85C1199.6 388.417 1200.39 389.217 1200.95 390.25C1201.52 391.267 1201.8 392.442 1201.8 393.775ZM1198.83 392.875C1198.81 391.825 1198.44 390.983 1197.7 390.35C1196.97 389.717 1196.06 389.4 1194.98 389.4C1194 389.4 1193.15 389.717 1192.45 390.35C1191.75 390.967 1191.34 391.808 1191.2 392.875H1198.83ZM1207.46 389.225C1207.88 388.525 1208.43 387.983 1209.11 387.6C1209.81 387.2 1210.63 387 1211.58 387V389.95H1210.86C1209.74 389.95 1208.89 390.233 1208.31 390.8C1207.74 391.367 1207.46 392.35 1207.46 393.75V401H1204.61V387.225H1207.46V389.225ZM1226.83 393.775C1226.83 394.292 1226.79 394.758 1226.73 395.175H1216.2C1216.29 396.275 1216.69 397.158 1217.43 397.825C1218.16 398.492 1219.06 398.825 1220.13 398.825C1221.66 398.825 1222.74 398.183 1223.38 396.9H1226.45C1226.04 398.167 1225.28 399.208 1224.18 400.025C1223.09 400.825 1221.74 401.225 1220.13 401.225C1218.81 401.225 1217.63 400.933 1216.58 400.35C1215.54 399.75 1214.73 398.917 1214.13 397.85C1213.54 396.767 1213.25 395.517 1213.25 394.1C1213.25 392.683 1213.54 391.442 1214.1 390.375C1214.69 389.292 1215.49 388.458 1216.53 387.875C1217.58 387.292 1218.78 387 1220.13 387C1221.43 387 1222.59 387.283 1223.6 387.85C1224.62 388.417 1225.41 389.217 1225.98 390.25C1226.54 391.267 1226.83 392.442 1226.83 393.775ZM1223.85 392.875C1223.84 391.825 1223.46 390.983 1222.73 390.35C1221.99 389.717 1221.09 389.4 1220 389.4C1219.02 389.4 1218.18 389.717 1217.48 390.35C1216.78 390.967 1216.36 391.808 1216.23 392.875H1223.85ZM1228.68 394.05C1228.68 392.667 1228.97 391.442 1229.53 390.375C1230.12 389.308 1230.9 388.483 1231.88 387.9C1232.88 387.3 1233.99 387 1235.21 387C1236.11 387 1236.99 387.2 1237.86 387.6C1238.74 387.983 1239.44 388.5 1239.96 389.15V382.5H1242.83V401H1239.96V398.925C1239.49 399.592 1238.84 400.142 1238.01 400.575C1237.19 401.008 1236.25 401.225 1235.18 401.225C1233.98 401.225 1232.88 400.925 1231.88 400.325C1230.9 399.708 1230.12 398.858 1229.53 397.775C1228.97 396.675 1228.68 395.433 1228.68 394.05ZM1239.96 394.1C1239.96 393.15 1239.76 392.325 1239.36 391.625C1238.97 390.925 1238.47 390.392 1237.83 390.025C1237.2 389.658 1236.52 389.475 1235.78 389.475C1235.05 389.475 1234.37 389.658 1233.73 390.025C1233.1 390.375 1232.58 390.9 1232.18 391.6C1231.8 392.283 1231.61 393.1 1231.61 394.05C1231.61 395 1231.8 395.833 1232.18 396.55C1232.58 397.267 1233.1 397.817 1233.73 398.2C1234.38 398.567 1235.07 398.75 1235.78 398.75C1236.52 398.75 1237.2 398.567 1237.83 398.2C1238.47 397.833 1238.97 397.3 1239.36 396.6C1239.76 395.883 1239.96 395.05 1239.96 394.1Z" fill="white"/>
<ellipse cx="719.5" cy="199.5" rx="135.5" ry="131.5" fill="white"/>
<path d="M719 272C758.765 272 791 239.764 791 200C791 160.235 758.765 128 719 128C679.235 128 647 160.235 647 200C647 239.764 679.235 272 719 272Z" fill="#E4E4E4"/>
<path d="M719 260C752.137 260 779 233.137 779 200C779 166.863 752.137 140 719 140C685.863 140 659 166.863 659 200C659 233.137 685.863 260 719 260Z" fill="#FA144B"/>
<path d="M713.677 222C713.57 222 713.464 221.997 713.357 221.992C712.415 221.947 711.495 221.697 710.658 221.259C709.821 220.822 709.088 220.208 708.51 219.46L699.376 207.649C698.312 206.271 697.835 204.525 698.051 202.793C698.266 201.062 699.155 199.487 700.523 198.415L700.852 198.157C702.222 197.088 703.959 196.609 705.681 196.825C707.402 197.041 708.968 197.936 710.035 199.311C710.55 199.977 711.202 200.523 711.946 200.912C712.69 201.301 713.509 201.523 714.347 201.564C715.184 201.605 716.021 201.464 716.799 201.15C717.577 200.836 718.278 200.356 718.855 199.744L737.403 180.055C737.994 179.428 738.702 178.923 739.487 178.571C740.271 178.219 741.117 178.026 741.977 178.002C742.836 177.979 743.691 178.126 744.493 178.435C745.296 178.744 746.03 179.209 746.654 179.804L746.957 180.092C748.217 181.293 748.951 182.947 748.998 184.692C749.044 186.436 748.4 188.128 747.207 189.395L718.426 219.945C717.815 220.594 717.079 221.111 716.262 221.465C715.445 221.818 714.566 222 713.677 222Z" fill="white"/>
<ellipse cx="1161.5" cy="199.5" rx="135.5" ry="131.5" fill="white"/>
<g clip-path="url(#clip1_75_2)">
<path d="M1143.11 214.683H1096.33L1095.84 200.284C1095.81 199.66 1095.93 199.039 1096.17 198.463C1096.41 197.887 1096.77 197.371 1097.23 196.949C1097.69 196.527 1098.24 196.21 1098.83 196.019C1099.43 195.829 1100.06 195.769 1100.68 195.845L1127.89 199.182H1127.9C1131.93 199.193 1135.8 200.805 1138.65 203.665C1141.5 206.524 1143.1 210.399 1143.11 214.439V214.683Z" fill="#FA144B"/>
<path d="M1122.26 163.61H1089.64C1089.2 163.61 1088.77 163.695 1088.37 163.861C1087.97 164.027 1087.61 164.271 1087.3 164.578C1086.99 164.885 1086.75 165.25 1086.58 165.651C1086.42 166.053 1086.33 166.483 1086.33 166.917V199.578C1086.33 200.013 1086.42 200.443 1086.58 200.844C1086.75 201.245 1086.99 201.61 1087.3 201.917C1087.61 202.224 1087.97 202.468 1088.37 202.634C1088.77 202.8 1089.2 202.886 1089.64 202.886H1122.26C1122.69 202.886 1123.12 202.8 1123.52 202.634C1123.92 202.468 1124.29 202.224 1124.59 201.917C1124.9 201.61 1125.14 201.245 1125.31 200.844C1125.48 200.443 1125.56 200.013 1125.56 199.578V166.917C1125.56 166.483 1125.48 166.053 1125.31 165.651C1125.14 165.25 1124.9 164.885 1124.59 164.578C1124.29 164.271 1123.92 164.027 1123.52 163.861C1123.12 163.695 1122.69 163.61 1122.26 163.61Z" fill="#CCCCCC"/>
<path d="M1114.91 188.032L1099.51 191.035C1098.59 191.213 1097.65 191.02 1096.88 190.499C1096.1 189.978 1095.57 189.172 1095.39 188.258L1094.21 182.171C1094.03 181.256 1094.22 180.308 1094.74 179.536C1095.26 178.763 1096.07 178.229 1096.98 178.05L1112.39 175.047C1113.3 174.87 1114.25 175.063 1115.02 175.583C1115.79 176.104 1116.32 176.91 1116.5 177.824L1117.69 183.911C1117.86 184.826 1117.67 185.774 1117.15 186.546C1116.63 187.319 1115.82 187.853 1114.91 188.032Z" fill="#3F3D56"/>
<path d="M1111.83 180.841L1100.07 183.133C1099.86 183.175 1099.64 183.129 1099.46 183.007C1099.27 182.884 1099.15 182.695 1099.11 182.479C1099.06 182.264 1099.11 182.041 1099.23 181.859C1099.35 181.677 1099.54 181.552 1099.76 181.51L1111.51 179.218C1111.73 179.176 1111.95 179.221 1112.13 179.344C1112.31 179.466 1112.44 179.656 1112.48 179.871C1112.52 180.087 1112.48 180.31 1112.36 180.492C1112.23 180.674 1112.04 180.799 1111.83 180.841Z" fill="white"/>
<path d="M1109.54 184.235L1103.46 185.42C1103.25 185.462 1103.03 185.417 1102.85 185.294C1102.66 185.172 1102.54 184.982 1102.5 184.767C1102.45 184.551 1102.5 184.328 1102.62 184.147C1102.74 183.965 1102.93 183.839 1103.15 183.797L1109.23 182.612C1109.34 182.591 1109.44 182.591 1109.55 182.613C1109.66 182.635 1109.76 182.677 1109.85 182.738C1109.94 182.798 1110.02 182.876 1110.08 182.967C1110.14 183.057 1110.18 183.159 1110.2 183.265C1110.22 183.372 1110.22 183.481 1110.2 183.588C1110.17 183.694 1110.13 183.795 1110.07 183.885C1110.01 183.975 1109.93 184.053 1109.84 184.113C1109.75 184.173 1109.65 184.214 1109.54 184.235Z" fill="white"/>
<path d="M1125.56 166.917V171.258H1086.33V166.917C1086.33 166.483 1086.42 166.053 1086.58 165.651C1086.75 165.25 1086.99 164.885 1087.3 164.578C1087.61 164.271 1087.97 164.027 1088.37 163.861C1088.77 163.695 1089.2 163.61 1089.64 163.61H1122.26C1122.69 163.61 1123.12 163.695 1123.52 163.861C1123.92 164.027 1124.29 164.271 1124.59 164.578C1124.9 164.885 1125.14 165.25 1125.31 165.651C1125.48 166.053 1125.56 166.483 1125.56 166.917Z" fill="#B3B3B3"/>
<path d="M1203.9 172.618C1203.67 171.886 1203.29 171.212 1202.78 170.645C1202.26 170.078 1201.63 169.63 1200.92 169.334C1200.22 169.038 1199.46 168.901 1198.69 168.931C1197.93 168.962 1197.18 169.16 1196.5 169.512L1151.62 153.391L1149.64 164.616L1194.38 176.933C1195.04 178.038 1196.09 178.859 1197.32 179.242C1198.55 179.625 1199.88 179.542 1201.05 179.01C1202.23 178.479 1203.17 177.534 1203.69 176.356C1204.22 175.177 1204.29 173.847 1203.9 172.618Z" fill="#FFB8B8"/>
<path opacity="0.2" d="M1203.9 172.618C1203.67 171.886 1203.29 171.212 1202.78 170.645C1202.26 170.078 1201.63 169.63 1200.92 169.334C1200.22 169.038 1199.46 168.901 1198.69 168.931C1197.93 168.962 1197.18 169.16 1196.5 169.512L1151.62 153.391L1149.64 164.616L1194.38 176.933C1195.04 178.038 1196.09 178.859 1197.32 179.242C1198.55 179.625 1199.88 179.542 1201.05 179.01C1202.23 178.479 1203.17 177.534 1203.69 176.356C1204.22 175.177 1204.29 173.847 1203.9 172.618Z" fill="black"/>
<path d="M1159.58 155.436L1155.34 166.521C1155.22 166.837 1155.04 167.122 1154.79 167.359C1154.55 167.595 1154.27 167.777 1153.95 167.892C1153.63 168.006 1153.29 168.051 1152.96 168.023C1152.62 167.995 1152.29 167.895 1152 167.729L1141.7 161.925C1140.09 161.298 1138.8 160.058 1138.1 158.478C1137.4 156.897 1137.36 155.104 1137.98 153.492C1138.61 151.88 1139.84 150.581 1141.42 149.879C1142.99 149.177 1144.78 149.13 1146.4 149.748L1157.9 152.302C1158.23 152.375 1158.54 152.518 1158.81 152.722C1159.08 152.926 1159.3 153.186 1159.46 153.483C1159.62 153.781 1159.71 154.109 1159.73 154.446C1159.75 154.783 1159.7 155.121 1159.58 155.436Z" fill="#FA144B"/>
<path d="M1207.43 182.882L1191.35 190.2L1193.46 198.158C1197.54 213.526 1198.62 229.536 1196.65 245.314L1208.41 247.772L1218.16 222.89L1214.74 194.591L1207.43 182.882Z" fill="#FA144B"/>
<path d="M1238.99 219.718C1228.42 219.718 1219.81 227.408 1219.39 237.039H1258.58C1258.17 227.408 1249.56 219.718 1238.99 219.718Z" fill="#3F3D56"/>
<path d="M1230.76 221.378C1230.21 177.907 1205.48 181.906 1205.48 181.906C1205.48 181.906 1205.95 195.437 1206.17 195.858C1221.93 225.707 1195.92 260.702 1162.82 254.264C1162.19 254.142 1161.59 254.019 1161.02 253.894C1156.82 253.018 1153.12 250.574 1150.66 247.061C1148.2 243.548 1147.17 239.229 1147.78 234.982C1151.04 208.764 1134.82 209.228 1134.82 209.228H1111.1L1098.79 198.131C1098.35 197.739 1097.83 197.46 1097.26 197.318C1096.69 197.176 1096.1 197.175 1095.53 197.315C1094.97 197.456 1094.44 197.734 1094 198.124C1093.57 198.515 1093.24 199.006 1093.03 199.556L1091.45 203.861C1091.45 203.861 1068.06 206.301 1070.01 229.232H1077.24C1077.22 229.884 1077.25 230.536 1077.32 231.184L1131.29 230.745C1134.45 230.719 1137.25 233.285 1137.26 236.453C1137.26 237.224 1137.11 237.988 1136.81 238.699C1136.51 239.41 1136.07 240.053 1135.52 240.59C1134.97 241.128 1134.31 241.548 1133.6 241.826C1132.88 242.104 1132.11 242.234 1131.34 242.208L1122.64 241.918C1119.96 253.871 1126.54 261.922 1133.79 266.984C1140.61 271.68 1148.71 274.171 1156.99 274.119H1180.63C1211.33 274.119 1216.69 248.26 1216.69 248.26C1232.78 241.43 1230.76 221.378 1230.76 221.378Z" fill="#3F3D56"/>
<path d="M1237.53 288.268C1252.67 288.268 1264.94 275.981 1264.94 260.824C1264.94 245.667 1252.67 233.379 1237.53 233.379C1222.39 233.379 1210.11 245.667 1210.11 260.824C1210.11 275.981 1222.39 288.268 1237.53 288.268Z" fill="#3F3D56"/>
<path d="M1237.53 267.55C1241.24 267.55 1244.25 264.539 1244.25 260.824C1244.25 257.109 1241.24 254.097 1237.53 254.097C1233.82 254.097 1230.81 257.109 1230.81 260.824C1230.81 264.539 1233.82 267.55 1237.53 267.55Z" fill="white"/>
<path d="M1099.12 288.268C1116.55 288.268 1130.68 274.124 1130.68 256.677C1130.68 239.229 1116.55 225.085 1099.12 225.085C1081.7 225.085 1067.57 239.229 1067.57 256.677C1067.57 274.124 1081.7 288.268 1099.12 288.268Z" fill="#3F3D56"/>
<path d="M1099.12 264.42C1103.4 264.42 1106.86 260.953 1106.86 256.677C1106.86 252.4 1103.4 248.934 1099.12 248.934C1094.85 248.934 1091.39 252.4 1091.39 256.677C1091.39 260.953 1094.85 264.42 1099.12 264.42Z" fill="white"/>
<path d="M1191.4 192.363L1185.61 176.628C1185.31 175.808 1185.17 174.937 1185.21 174.064C1185.24 173.19 1185.45 172.333 1185.81 171.539C1186.18 170.746 1186.7 170.033 1187.34 169.44C1187.98 168.847 1188.73 168.387 1189.55 168.085L1206.14 161.971C1207.58 161.439 1209.11 161.197 1210.65 161.259C1212.18 161.32 1213.69 161.683 1215.09 162.328C1216.48 162.972 1217.73 163.886 1218.78 165.015C1219.82 166.145 1220.63 167.469 1221.16 168.912C1221.64 170.207 1221.88 171.577 1221.88 172.958C1221.87 174.711 1221.48 176.441 1220.72 178.022C1219.96 179.603 1218.86 180.995 1217.5 182.096C1216.51 182.887 1215.41 183.511 1214.22 183.945L1191.4 192.363Z" fill="#3F3D56"/>
<path d="M1221.64 172.958C1221.63 174.675 1221.25 176.371 1220.51 177.919C1219.76 179.468 1218.68 180.83 1217.35 181.906C1215.29 181.364 1213.39 180.381 1211.75 179.026C1210.12 177.671 1208.8 175.975 1207.88 174.058C1206.97 172.14 1206.48 170.046 1206.46 167.922C1206.44 165.797 1206.88 163.693 1207.75 161.756C1209.42 161.392 1211.15 161.407 1212.81 161.801C1214.48 162.195 1216.03 162.957 1217.37 164.031C1218.7 165.106 1219.77 166.465 1220.51 168.01C1221.25 169.555 1221.63 171.245 1221.64 172.958Z" fill="#FA144B"/>
<path d="M1074.15 232.404C1077.92 232.404 1080.97 228.69 1080.97 224.109C1080.97 219.528 1077.92 215.815 1074.15 215.815C1070.38 215.815 1067.33 219.528 1067.33 224.109C1067.33 228.69 1070.38 232.404 1074.15 232.404Z" fill="#FA144B"/>
<path d="M1164.33 253.469H1170.31L1173.15 237.955L1164.33 237.956L1164.33 253.469Z" fill="#FFB8B8"/>
<path d="M1162.81 251.516L1174.58 251.516H1174.58C1175.56 251.516 1176.54 251.71 1177.45 252.087C1178.36 252.464 1179.18 253.017 1179.88 253.714C1180.58 254.412 1181.13 255.239 1181.51 256.15C1181.88 257.061 1182.08 258.037 1182.08 259.023V259.267L1162.81 259.267L1162.81 251.516Z" fill="#2F2E41"/>
<path d="M1171.27 247.102C1171.2 247.102 1171.13 247.098 1171.06 247.092L1162.79 246.489C1162.46 246.458 1162.13 246.35 1161.85 246.175C1161.56 245.999 1161.32 245.76 1161.14 245.476C1160.96 245.191 1160.85 244.87 1160.81 244.535C1160.78 244.201 1160.82 243.863 1160.94 243.547L1172 218.657C1172.08 218.435 1172.11 218.2 1172.1 217.965C1172.08 217.73 1172.01 217.5 1171.91 217.292C1171.8 217.081 1171.64 216.895 1171.46 216.747C1171.27 216.599 1171.06 216.492 1170.83 216.433C1165.62 215.071 1152.27 211.446 1140.72 207.203C1135.77 205.385 1132.65 202.759 1131.45 199.396C1129.87 194.962 1132.21 190.919 1132.31 190.749L1132.39 190.616L1143.26 191.606L1155.05 192.61L1180.88 206.48C1183.05 207.652 1184.69 209.597 1185.49 211.929C1186.29 214.26 1186.18 216.806 1185.18 219.06L1173.27 245.801C1173.1 246.188 1172.82 246.517 1172.46 246.748C1172.11 246.979 1171.69 247.102 1171.27 247.102Z" fill="#2F2E41"/>
<path d="M1145.15 142.363C1151.76 142.363 1157.12 136.998 1157.12 130.379C1157.12 123.761 1151.76 118.396 1145.15 118.396C1138.54 118.396 1133.18 123.761 1133.18 130.379C1133.18 136.998 1138.54 142.363 1145.15 142.363Z" fill="#FFB8B8"/>
<path d="M1160.92 254.933H1166.9L1169.74 239.419L1160.92 239.42L1160.92 254.933Z" fill="#FFB8B8"/>
<path d="M1159.4 252.98L1171.17 252.979H1171.17C1172.15 252.979 1173.13 253.174 1174.04 253.551C1174.95 253.928 1175.77 254.481 1176.47 255.178C1177.16 255.875 1177.72 256.703 1178.09 257.614C1178.47 258.524 1178.66 259.501 1178.66 260.486V260.73L1159.4 260.731L1159.4 252.98Z" fill="#2F2E41"/>
<path d="M1167.86 248.566C1167.79 248.566 1167.72 248.562 1167.65 248.556L1159.38 247.953C1159.05 247.922 1158.72 247.814 1158.44 247.639C1158.15 247.463 1157.91 247.224 1157.73 246.939C1157.55 246.655 1157.44 246.333 1157.4 245.999C1157.37 245.665 1157.41 245.327 1157.52 245.011L1168.59 220.121C1168.67 219.899 1168.7 219.663 1168.68 219.428C1168.67 219.193 1168.6 218.964 1168.49 218.756C1168.39 218.544 1168.23 218.359 1168.05 218.211C1167.86 218.063 1167.65 217.956 1167.42 217.897C1162.21 216.535 1148.86 212.909 1137.31 208.667C1132.35 206.849 1129.24 204.222 1128.04 200.86C1126.46 196.426 1128.8 192.383 1128.9 192.213L1128.97 192.08L1139.85 193.07L1151.64 194.074L1177.47 207.944C1179.64 209.116 1181.28 211.061 1182.08 213.392C1182.87 215.724 1182.76 218.27 1181.77 220.524L1169.86 247.264C1169.69 247.652 1169.41 247.981 1169.05 248.212C1168.7 248.442 1168.28 248.565 1167.86 248.566Z" fill="#2F2E41"/>
<path d="M1148.84 149.158L1136.17 144.767C1136.17 144.767 1128.22 150.885 1132.04 166.063C1134.03 173.895 1133.45 182.163 1130.38 189.638C1130.01 190.563 1129.59 191.464 1129.11 192.337C1129.11 192.337 1143.24 209.413 1156.4 196.728L1151.28 172.089C1151.28 172.089 1159.32 155.744 1148.84 149.158Z" fill="#FA144B"/>
<path d="M1146.64 142.77C1144.93 140.218 1143.59 136.678 1145.46 134.249C1147.32 131.851 1150.97 132.204 1153.8 131.143C1157.75 129.666 1160.04 125.021 1159.33 120.861C1158.61 116.701 1155.28 113.252 1151.31 111.841C1147.33 110.43 1142.85 110.889 1138.96 112.514C1134.17 114.514 1130.06 118.383 1128.34 123.285C1126.61 128.186 1127.54 134.071 1131.11 137.839C1134.94 141.878 1140.96 142.954 1146.52 142.889" fill="#2F2E41"/>
<path d="M1135.5 120.994C1133.36 122.744 1130.08 121.967 1127.78 120.431C1125.47 118.896 1123.6 116.709 1121.11 115.505C1116.71 113.383 1111.4 114.794 1107.12 117.145C1102.84 119.496 1099.05 122.744 1094.53 124.588C1090.02 126.433 1084.25 126.524 1080.83 123.041C1079.99 125.483 1079.92 128.126 1080.63 130.609C1081.34 133.092 1082.81 135.294 1084.82 136.915C1086.83 138.535 1089.29 139.496 1091.86 139.665C1094.44 139.834 1097 139.203 1099.2 137.859C1104.16 134.84 1106.89 128.509 1112.44 126.843C1115.52 125.921 1118.82 126.663 1121.92 127.468C1125.03 128.272 1128.27 129.141 1131.4 128.457C1134.53 127.772 1137.47 124.952 1137.07 121.765L1135.5 120.994Z" fill="#2F2E41"/>
<path d="M1203.31 172.13C1202.99 171.431 1202.53 170.81 1201.95 170.311C1201.37 169.812 1200.68 169.446 1199.95 169.239C1199.21 169.033 1198.44 168.99 1197.68 169.115C1196.93 169.24 1196.21 169.529 1195.58 169.962L1149.05 159.508L1148.47 170.892L1194.39 177.589C1195.18 178.602 1196.32 179.288 1197.59 179.516C1198.86 179.744 1200.17 179.498 1201.27 178.825C1202.37 178.152 1203.18 177.099 1203.56 175.865C1203.93 174.631 1203.84 173.302 1203.31 172.13Z" fill="#FFB8B8"/>
<path d="M1157.21 160.554L1154.37 172.078C1154.29 172.406 1154.14 172.712 1153.93 172.977C1153.72 173.241 1153.45 173.457 1153.15 173.61C1152.85 173.763 1152.52 173.85 1152.18 173.863C1151.85 173.877 1151.51 173.818 1151.2 173.69L1140.26 169.202C1138.59 168.78 1137.15 167.71 1136.26 166.226C1135.37 164.743 1135.11 162.969 1135.53 161.292C1135.95 159.614 1137.01 158.172 1138.49 157.281C1139.97 156.39 1141.75 156.122 1143.42 156.538L1155.15 157.651C1155.49 157.683 1155.81 157.788 1156.1 157.957C1156.4 158.126 1156.65 158.356 1156.84 158.631C1157.04 158.907 1157.17 159.221 1157.23 159.553C1157.3 159.885 1157.29 160.226 1157.21 160.554Z" fill="#FA144B"/>
<path d="M1197.93 181.174C1199.82 181.174 1201.34 179.645 1201.34 177.759C1201.34 175.873 1199.82 174.344 1197.93 174.344C1196.05 174.344 1194.52 175.873 1194.52 177.759C1194.52 179.645 1196.05 181.174 1197.93 181.174Z" fill="#FA144B"/>
</g>
<defs>
<linearGradient id="paint0_linear_75_2" x1="435.425" y1="210" x2="452.787" y2="210" gradientUnits="userSpaceOnUse">
<stop stop-color="#FF0000"/>
<stop offset="1" stop-color="#FF6B00"/>
</linearGradient>
<linearGradient id="paint1_linear_75_2" x1="469.425" y1="210" x2="486.787" y2="210" gradientUnits="userSpaceOnUse">
<stop stop-color="#FF0000"/>
<stop offset="1" stop-color="#FF6B00"/>
</linearGradient>
<linearGradient id="paint2_linear_75_2" x1="508.425" y1="210" x2="525.787" y2="210" gradientUnits="userSpaceOnUse">
<stop stop-color="#FF0000"/>
<stop offset="1" stop-color="#FF6B00"/>
</linearGradient>
<linearGradient id="paint3_linear_75_2" x1="544.425" y1="210" x2="561.787" y2="210" gradientUnits="userSpaceOnUse">
<stop stop-color="#FF0000"/>
<stop offset="1" stop-color="#FF6B00"/>
</linearGradient>
<clipPath id="clip0_75_2">
<rect width="197" height="186" fill="white" transform="translate(190 103)"/>
</clipPath>
<clipPath id="clip1_75_2">
<rect width="404" height="178" fill="white" transform="translate(945 111)"/>
</clipPath>
</defs>
</svg>
