<svg width="113" height="26" viewBox="0 0 113 26" fill="none" xmlns="http://www.w3.org/2000/svg">
<path d="M29.213 17.436H33.208V19H27.275V7.185H29.213V17.436ZM38.8917 19.153C38.0077 19.153 37.2087 18.9547 36.4947 18.558C35.7807 18.15 35.2197 17.5833 34.8117 16.858C34.4037 16.1213 34.1997 15.2713 34.1997 14.308C34.1997 13.356 34.4094 12.5117 34.8287 11.775C35.248 11.0383 35.8204 10.4717 36.5457 10.075C37.271 9.67833 38.0814 9.48 38.9767 9.48C39.872 9.48 40.6824 9.67833 41.4077 10.075C42.133 10.4717 42.7054 11.0383 43.1247 11.775C43.544 12.5117 43.7537 13.356 43.7537 14.308C43.7537 15.26 43.5384 16.1043 43.1077 16.841C42.677 17.5777 42.0877 18.15 41.3397 18.558C40.603 18.9547 39.787 19.153 38.8917 19.153ZM38.8917 17.47C39.3904 17.47 39.855 17.351 40.2857 17.113C40.7277 16.875 41.0847 16.518 41.3567 16.042C41.6287 15.566 41.7647 14.988 41.7647 14.308C41.7647 13.628 41.6344 13.0557 41.3737 12.591C41.113 12.115 40.7674 11.758 40.3367 11.52C39.906 11.282 39.4414 11.163 38.9427 11.163C38.444 11.163 37.9794 11.282 37.5487 11.52C37.1294 11.758 36.795 12.115 36.5457 12.591C36.2964 13.0557 36.1717 13.628 36.1717 14.308C36.1717 15.3167 36.4267 16.0987 36.9367 16.654C37.458 17.198 38.1097 17.47 38.8917 17.47ZM45.0235 14.308C45.0235 13.3447 45.2162 12.5003 45.6015 11.775C45.9982 11.0383 46.5422 10.4717 47.2335 10.075C47.9249 9.67833 48.7182 9.48 49.6135 9.48C50.7469 9.48 51.6819 9.752 52.4185 10.296C53.1665 10.8287 53.6709 11.5937 53.9315 12.591H51.8405C51.6705 12.1263 51.3985 11.7637 51.0245 11.503C50.6505 11.2423 50.1802 11.112 49.6135 11.112C48.8202 11.112 48.1855 11.3953 47.7095 11.962C47.2449 12.5173 47.0125 13.2993 47.0125 14.308C47.0125 15.3167 47.2449 16.1043 47.7095 16.671C48.1855 17.2377 48.8202 17.521 49.6135 17.521C50.7355 17.521 51.4779 17.028 51.8405 16.042H53.9315C53.6595 16.994 53.1495 17.7533 52.4015 18.32C51.6535 18.8753 50.7242 19.153 49.6135 19.153C48.7182 19.153 47.9249 18.9547 47.2335 18.558C46.5422 18.15 45.9982 17.5833 45.6015 16.858C45.2162 16.1213 45.0235 15.2713 45.0235 14.308ZM55.2169 14.274C55.2169 13.3333 55.4096 12.5003 55.7949 11.775C56.1916 11.0497 56.7242 10.4887 57.3929 10.092C58.0729 9.684 58.8209 9.48 59.6369 9.48C60.3736 9.48 61.0139 9.62733 61.5579 9.922C62.1132 10.2053 62.5552 10.5623 62.8839 10.993V9.633H64.8389V19H62.8839V17.606C62.5552 18.048 62.1076 18.4163 61.5409 18.711C60.9742 19.0057 60.3282 19.153 59.6029 19.153C58.7982 19.153 58.0616 18.949 57.3929 18.541C56.7242 18.1217 56.1916 17.5437 55.7949 16.807C55.4096 16.059 55.2169 15.2147 55.2169 14.274ZM62.8839 14.308C62.8839 13.662 62.7479 13.101 62.4759 12.625C62.2152 12.149 61.8696 11.7863 61.4389 11.537C61.0082 11.2877 60.5436 11.163 60.0449 11.163C59.5462 11.163 59.0816 11.2877 58.6509 11.537C58.2202 11.775 57.8689 12.132 57.5969 12.608C57.3362 13.0727 57.2059 13.628 57.2059 14.274C57.2059 14.92 57.3362 15.4867 57.5969 15.974C57.8689 16.4613 58.2202 16.8353 58.6509 17.096C59.0929 17.3453 59.5576 17.47 60.0449 17.47C60.5436 17.47 61.0082 17.3453 61.4389 17.096C61.8696 16.8467 62.2152 16.484 62.4759 16.008C62.7479 15.5207 62.8839 14.954 62.8839 14.308ZM69.6454 11.214V16.399C69.6454 16.7503 69.7247 17.0053 69.8834 17.164C70.0534 17.3113 70.3367 17.385 70.7334 17.385H71.9234V19H70.3934C69.5207 19 68.852 18.796 68.3874 18.388C67.9227 17.98 67.6904 17.317 67.6904 16.399V11.214H66.5854V9.633H67.6904V7.304H69.6454V9.633H71.9234V11.214H69.6454ZM82.2946 14.087C82.2946 14.4383 82.2719 14.7557 82.2266 15.039H75.0696C75.1262 15.787 75.4039 16.3877 75.9026 16.841C76.4012 17.2943 77.0132 17.521 77.7386 17.521C78.7812 17.521 79.5179 17.0847 79.9486 16.212H82.0396C81.7562 17.0733 81.2406 17.7817 80.4926 18.337C79.7559 18.881 78.8379 19.153 77.7386 19.153C76.8432 19.153 76.0386 18.9547 75.3246 18.558C74.6219 18.15 74.0666 17.5833 73.6586 16.858C73.2619 16.1213 73.0636 15.2713 73.0636 14.308C73.0636 13.3447 73.2562 12.5003 73.6416 11.775C74.0382 11.0383 74.5879 10.4717 75.2906 10.075C76.0046 9.67833 76.8206 9.48 77.7386 9.48C78.6226 9.48 79.4102 9.67267 80.1016 10.058C80.7929 10.4433 81.3312 10.9873 81.7166 11.69C82.1019 12.3813 82.2946 13.1803 82.2946 14.087ZM80.2716 13.475C80.2602 12.761 80.0052 12.1887 79.5066 11.758C79.0079 11.3273 78.3902 11.112 77.6536 11.112C76.9849 11.112 76.4126 11.3273 75.9366 11.758C75.4606 12.1773 75.1772 12.7497 75.0866 13.475H80.2716ZM101.062 7.185V19H99.1238V10.908L95.5198 19H94.1768L90.5558 10.908V19H88.6178V7.185H90.7088L94.8568 16.45L98.9878 7.185H101.062ZM112.194 14.087C112.194 14.4383 112.171 14.7557 112.126 15.039H104.969C105.026 15.787 105.303 16.3877 105.802 16.841C106.301 17.2943 106.913 17.521 107.638 17.521C108.681 17.521 109.417 17.0847 109.848 16.212H111.939C111.656 17.0733 111.14 17.7817 110.392 18.337C109.655 18.881 108.737 19.153 107.638 19.153C106.743 19.153 105.938 18.9547 105.224 18.558C104.521 18.15 103.966 17.5833 103.558 16.858C103.161 16.1213 102.963 15.2713 102.963 14.308C102.963 13.3447 103.156 12.5003 103.541 11.775C103.938 11.0383 104.487 10.4717 105.19 10.075C105.904 9.67833 106.72 9.48 107.638 9.48C108.522 9.48 109.31 9.67267 110.001 10.058C110.692 10.4433 111.231 10.9873 111.616 11.69C112.001 12.3813 112.194 13.1803 112.194 14.087ZM110.171 13.475C110.16 12.761 109.905 12.1887 109.406 11.758C108.907 11.3273 108.29 11.112 107.553 11.112C106.884 11.112 106.312 11.3273 105.836 11.758C105.36 12.1773 105.077 12.7497 104.986 13.475H110.171Z" fill="#373737"/>
<g clip-path="url(#clip0_57_2)">
<path d="M8.70838 22.2083V20.625C7.05908 20.4403 5.6441 19.7576 4.46347 18.577C3.2823 17.3958 2.59935 15.9806 2.41463 14.3313H0.831299V12.7479H2.41463C2.59935 11.0986 3.2823 9.68366 4.46347 8.50302C5.6441 7.32185 7.05908 6.63891 8.70838 6.45418V4.87085H10.2917V6.45418C11.941 6.63891 13.3563 7.32185 14.5374 8.50302C15.7181 9.68366 16.4007 11.0986 16.5855 12.7479H18.1688V14.3313H16.5855C16.4007 15.9806 15.7181 17.3958 14.5374 18.577C13.3563 19.7576 11.941 20.4403 10.2917 20.625V22.2083H8.70838ZM9.50005 19.0813C11.0306 19.0813 12.3369 18.5403 13.4188 17.4583C14.5007 16.3764 15.0417 15.0702 15.0417 13.5396C15.0417 12.009 14.5007 10.7028 13.4188 9.62085C12.3369 8.53891 11.0306 7.99793 9.50005 7.99793C7.96949 7.99793 6.66324 8.53891 5.5813 9.62085C4.49935 10.7028 3.95838 12.009 3.95838 13.5396C3.95838 15.0702 4.49935 16.3764 5.5813 17.4583C6.66324 18.5403 7.96949 19.0813 9.50005 19.0813Z" fill="#373737"/>
</g>
<defs>
<clipPath id="clip0_57_2">
<rect width="19" height="19" fill="white" transform="translate(0 4)"/>
</clipPath>
</defs>
</svg>
